<?xml version="1.0" encoding="iso-8859-1"?>
<!-- Uploaded to: SVG Repo, www.svgrepo.com, Generator: SVG Repo Mixer Tools -->
<svg version="1.1" id="Layer_1" xmlns="http://www.w3.org/2000/svg" xmlns:xlink="http://www.w3.org/1999/xlink" 
	 viewBox="0 0 512 512" xml:space="preserve">
<path style="fill:#FEDCD7;" d="M499.073,175.505C465.33,73.56,369.261,0,256,0C114.616,0,0,114.616,0,256
	c0,113.575,73.97,209.858,176.354,243.348L499.073,175.505z"/>
<path style="fill:#FCB9B0;" d="M512,256c0-28.123-4.549-55.181-12.928-80.495l-84.35-84.35L110.887,433.881l65.467,65.467
	C201.424,507.549,228.191,512,256,512C397.385,512,512,397.385,512,256z"/>
<path style="fill:#A56840;" d="M442.435,158.052c0,23.53-8.604,45.034-22.817,61.585v167.079c0,36.73-30.052,66.783-66.783,66.783
	H256l-33.391-195.027L256,63.443h91.826C400.072,63.443,442.435,105.806,442.435,158.052z"/>
<path style="fill:#B78456;" d="M256,63.443v390.055h-97.948c-36.73,0-66.783-30.052-66.783-66.783v-168.37
	c-13.557-16.373-21.704-37.376-21.704-60.294c0-52.246,42.362-94.609,94.609-94.609H256z"/>
<path style="fill:#FFF3AD;" d="M420.174,158.052c0,20.736-8.782,39.457-22.817,52.658v176.006c0,24.554-19.968,44.522-44.522,44.522
	H256l-44.522-172.767L256,85.704h91.826C387.718,85.704,420.174,118.161,420.174,158.052z"/>
<path style="fill:#FFFFFF;" d="M256,85.704v345.533h-97.948c-24.554,0-44.522-19.968-44.522-44.522V209.653
	c-13.379-13.134-21.704-31.41-21.704-51.601c0-39.891,32.456-72.348,72.348-72.348H256z"/>
<path style="fill:#F72E12;" d="M347.826,107.965H256l-55.652,150.506L256,408.977h96.835c12.275,0,22.261-9.986,22.261-22.261
	V200.033c13.722-8.943,22.817-24.416,22.817-41.981C397.913,130.434,375.445,107.965,347.826,107.965z"/>
<path style="fill:#F8513A;" d="M164.174,107.965c-27.618,0-50.087,22.469-50.087,50.087c0,17.086,8.605,32.195,21.704,41.238
	v187.425c0,12.275,9.986,22.261,22.261,22.261H256V107.965H164.174z"/>
<rect x="278.261" y="174.748" style="fill:#521F0E;" width="22.261" height="22.261"/>
<rect x="211.478" y="342.194" style="fill:#F72E12;" width="22.261" height="22.261"/>
<rect x="166.957" y="297.672" style="fill:#813115;" width="22.261" height="22.261"/>
<rect x="200.348" y="264.281" style="fill:#F72E12;" width="22.261" height="22.261"/>
<rect x="330.574" y="364.455" style="fill:#521F0E;" width="22.261" height="22.261"/>
<rect x="300.522" y="130.226" style="fill:#692811;" width="22.261" height="22.261"/>
</svg>